<svg width="161" height="20" viewBox="0 0 161 20" fill="none" xmlns="http://www.w3.org/2000/svg">
<g clip-path="url(#clip0_1665_6205)">
<path d="M8.46921 17.3184V3.99352C8.46921 3.72337 8.25017 3.50433 7.98003 3.50433H2.19741C1.5403 3.50433 1 3.03705 1 2.37994C1 1.72282 1.5403 1.25554 2.19741 1.25554H7.98003C9.5717 1.25554 10.8494 2.53326 10.8494 4.12494V17.333C10.8494 17.9682 10.3383 18.5085 9.67392 18.5085C9.00951 18.5085 8.46921 17.9682 8.46921 17.333M12.463 3.50433C11.7986 3.50433 11.2583 3.03705 11.2583 2.37994C11.2583 1.72282 11.7986 1.25554 12.463 1.25554H17.1212C17.7856 1.25554 18.3186 1.72282 18.3186 2.37994C18.3186 3.03705 17.7783 3.50433 17.1212 3.50433H12.463Z" fill="#231F20"/>
<path d="M33.5783 17.8368L26.7151 3.59925C26.591 3.38022 26.35 3.23419 26.1018 3.23419C25.8536 3.23419 25.6345 3.38022 25.5104 3.59925L18.6253 17.8368C18.3332 18.4282 17.6177 18.6691 17.0336 18.377C16.4422 18.085 16.2013 17.3695 16.4933 16.7854L23.3784 2.70119C23.8895 1.64981 24.9482 1.0073 26.0945 1.0073C27.2408 1.0073 28.3506 1.67172 28.8398 2.7231L35.703 16.7854C36.0461 17.4936 35.5789 18.5012 34.6516 18.5012C34.2135 18.5012 33.7681 18.2602 33.571 17.8441M24.5685 12.2732C24.5685 11.3897 25.1526 10.8275 26.1091 10.8275C27.0656 10.8275 27.6497 11.3897 27.6497 12.2732C27.6497 13.1566 27.0583 13.7188 26.1091 13.7188C25.1599 13.7188 24.5685 13.1566 24.5685 12.2732Z" fill="#231F20"/>
<path d="M36.9442 9.74693C36.9442 4.21256 41.084 1 46.6184 1C49.4878 1 51.8607 1.83235 53.6714 3.45323C54.1606 3.89131 54.2628 4.62874 53.8175 5.11792C53.3794 5.60711 52.5689 5.5341 52.0798 5.09602C50.729 3.89861 48.8745 3.25609 46.6184 3.25609C41.8653 3.25609 39.3171 6.1474 39.3171 9.74693C39.3171 13.8649 42.4056 16.2378 46.6184 16.2378C48.5532 16.2378 50.1449 15.7997 51.4664 14.8651C51.6125 14.7702 51.6855 14.6169 51.6855 14.4709V10.8932H45.5086C44.8734 10.8932 44.3331 10.426 44.3331 9.76884C44.3331 9.11172 44.8734 8.64444 45.5086 8.64444H52.861C53.5254 8.64444 54.0657 9.15553 54.0657 9.81994V14.4782C54.0657 17.2965 49.8237 18.4501 46.6184 18.4939C41.4272 18.5888 36.9442 15.2594 36.9442 9.74693Z" fill="#231F20"/>
<path d="M74.0347 17.8368L67.1715 3.59925C67.0474 3.38022 66.8065 3.23419 66.5582 3.23419C66.31 3.23419 66.0909 3.38022 65.9668 3.59925L59.0817 17.8368C58.7896 18.4282 58.0741 18.6691 57.49 18.377C56.8986 18.085 56.6577 17.3695 56.9497 16.7854L63.8348 2.70119C64.3459 1.64981 65.4046 1.0073 66.5509 1.0073C67.6972 1.0073 68.807 1.67172 69.2962 2.7231L76.1594 16.7854C76.5026 17.4936 76.0353 18.5012 75.108 18.5012C74.6699 18.5012 74.2246 18.2602 74.0274 17.8441M65.0176 12.2732C65.0176 11.3897 65.6017 10.8275 66.5582 10.8275C67.5147 10.8275 68.0988 11.3897 68.0988 12.2732C68.0988 13.1566 67.5074 13.7188 66.5582 13.7188C65.609 13.7188 65.0176 13.1566 65.0176 12.2732Z" fill="#231F20"/>
<path d="M82.1245 18.2748C80.5329 18.2748 79.2332 16.9752 79.2332 15.4127V4.11765C79.2332 2.54788 80.5329 1.24825 82.1245 1.24825H86.5856C92.7114 1.19714 96.5592 3.40213 96.5592 9.74694C96.5592 16.0918 92.7114 18.3186 86.5856 18.2748H82.1245ZM82.1245 3.50435C81.8544 3.50435 81.6135 3.72338 81.6135 3.99353V15.5369C81.6135 15.807 81.8544 16.026 82.1245 16.026H86.5856C91.4337 15.88 94.179 14.7994 94.179 9.75424C94.179 4.70906 91.4337 3.65037 86.5856 3.50435H82.1245Z" fill="#231F20"/>
<path d="M103.006 18.2748C101.415 18.2748 100.115 16.9752 100.115 15.4127V4.11765C100.115 2.54788 101.415 1.24825 103.006 1.24825H107.467C113.593 1.19714 117.441 3.40213 117.441 9.74694C117.441 16.0918 113.593 18.3186 107.467 18.2748H103.006ZM103.006 3.50435C102.736 3.50435 102.488 3.72338 102.488 3.99353V15.5369C102.488 15.807 102.736 16.026 103.006 16.026H107.467C112.323 15.88 115.061 14.7994 115.061 9.75424C115.061 4.70906 112.315 3.65037 107.467 3.50435H103.006Z" fill="#231F20"/>
<path d="M119.887 9.74693C119.887 4.11034 124.472 1 129.517 1C134.884 1 139.118 4.35859 139.118 9.74693C139.118 15.1353 135.271 18.4939 129.517 18.4939C124.151 18.4939 119.887 15.2594 119.887 9.74693ZM122.26 9.74693C122.26 13.5947 125.049 16.2378 129.51 16.2378C133.971 16.2378 136.738 13.5947 136.738 9.74693C136.738 5.89916 133.971 3.25609 129.51 3.25609C125.049 3.25609 122.26 5.89916 122.26 9.74693Z" fill="#231F20"/>
<path d="M145.565 18.2748C143.974 18.2748 142.674 16.9752 142.674 15.4127V4.11765C142.674 2.54788 143.974 1.24825 145.565 1.24825H150.026C156.152 1.19714 160 3.40213 160 9.74694C160 16.0918 156.152 18.3186 150.026 18.2748H145.565ZM145.565 3.50435C145.295 3.50435 145.047 3.72338 145.047 3.99353V15.5369C145.047 15.807 145.295 16.026 145.565 16.026H150.026C154.882 15.88 157.62 14.7994 157.62 9.75424C157.62 4.70906 154.875 3.65037 150.026 3.50435H145.565Z" fill="#231F20"/>
</g>
<defs>
<clipPath id="clip0_1665_6205">
<rect width="159" height="17.5085" fill="white" transform="translate(1 1)"/>
</clipPath>
</defs>
</svg>
